<?xml version="1.0" ?><!DOCTYPE svg  PUBLIC '-//W3C//DTD SVG 1.1//EN'  'http://www.w3.org/Graphics/SVG/1.1/DTD/svg11.dtd'><svg enable-background="new 0 0 512 512" height="512px" id="Layer_1" version="1.1" viewBox="0 0 512 512" width="512px" xml:space="preserve" xmlns="http://www.w3.org/2000/svg" xmlns:xlink="http://www.w3.org/1999/xlink"><g><path d="M512,256c0,1.143,0,2.246-0.038,3.389c-1.692,132.727-104.408,241.073-234.77,251.746    C270.22,511.727,263.131,512,256,512C114.611,512,0,397.393,0,256C0,114.611,114.611,0,256,0C397.393,0,512,114.611,512,256z" fill="#EFC849"/><path d="M472.027,221.223c-0.866-2.123-1.931-3.977-3.15-5.511c-2.089-2.562-4.607-4.216-7.327-4.766l-8.584-1.654    c-5.358-1.065-10.95,0.474-16.031,4.369c-19.023,14.535-36.312,32.851-52.381,45.847c-25.915-7.523-58.25-16.107-90.427-22.646    h-0.119c-20.558-15.323-40.685-24.696-60.611-30.25l-0.119-0.038c-0.235-0.039-0.474-0.119-0.67-0.196l-3.269-0.827    c-5.75-1.457-11.5-2.639-17.212-3.546c-19.692-3.188-36.234-2.873-49.623-0.865v-0.077l-3.584,0.589    c-0.158,0.038-0.277,0.038-0.396,0.08l-0.196,0.039c-5.946,1.104-11.185,2.519-15.673,4.135c-0.196-0.354-0.435-0.631-0.669-0.67    c-0.435-0.077-0.946,0.474-1.497,1.458c-2.404,0.946-4.611,1.931-6.538,2.915l-42.773-55.181c-1.3-0.196-2.992,4.215-4.884,12.092    c-1.062,4.373-2.166,9.846-3.308,16.15c-1.889,10.63-3.819,23.669-5.592,38.042c-11.854-1.458-21.7,2.011-22.37,8.153    c-0.473,4.292,3.743,8.785,10.319,11.896c0.55,3.465,3.858,6.893,8.862,9.53c-1.262,13.428-2.089,25.758-2.523,35.958    c-0.077,1.73-0.115,3.385-0.196,5c0,0.669,0,1.3-0.039,1.931c0,0.984-0.039,1.931-0.039,2.835c0,0.75-0.042,1.457-0.042,2.165    v2.285c0,0.631,0,1.261,0.042,1.854v0.588c0,1.023,0.039,2.008,0.077,2.916v0.196c0.038,1.065,0.081,2.05,0.158,2.953    c0.038,0.277,0.038,0.555,0.081,0.789c0.039,0.708,0.115,1.377,0.196,1.969c0.039,0.196,0.039,0.393,0.077,0.593    c0.119,0.707,0.239,1.3,0.354,1.812c0.042,0.157,0.081,0.234,0.119,0.393c0.119,0.354,0.196,0.63,0.315,0.865    c0.077,0.119,0.119,0.2,0.196,0.276c0.158,0.234,0.315,0.393,0.511,0.435v0.039c0.042,0,0.042-0.039,0.081-0.039    c0.196,0.039,0.392-0.042,0.631-0.276c0,0,134.969,128.826,202.988,195.308c130.361-10.673,233.077-119.02,234.77-251.746    C490.97,238.792,473.089,221.462,472.027,221.223z" opacity="0.15"/><g><g><path d="M326.53,265.823c10.639,11.131-45.419,10.988-103.068,1.577c-57.654-9.408-102.889-30.785-101.035-47.75      c0.75-6.889,32.042-26.889,89.712-17.662C249.304,207.931,286.839,224.277,326.53,265.823z" fill="#EBF0F5"/><g><path d="M212.02,221.143c-0.877,7.992-5.496,13.834-10.319,13.046s-8.031-7.904-7.154-15.9       c0.873-7.992,5.492-13.834,10.315-13.046C209.688,206.03,212.889,213.15,212.02,221.143z" fill="#DDFF91"/><polygon fill="#102947" points="205.923,222.657 197.996,221.369 198.119,220.23 206.046,221.523      "/><path d="M217.058,220.046c-0.477,4.331-2.334,8.012-4.969,10.47c-2.631,2.457-3.185,3.769-6.728,3.192       c-3.542-0.577,1.643-12.608-0.365-15.827c-2.012-3.216-13.742-0.646-13.266-4.977c1.262-4.108,2.012-5.062,4.643-7.52       c2.635-2.458,6.027-3.688,9.569-3.111c3.542,0.576,6.558,2.857,8.569,6.076C216.523,211.562,217.53,215.716,217.058,220.046z" fill="#472510"/><path d="M195.692,223.357c-1.339-0.211-2.304-1.573-2.139-3.034c0.158-1.446,1.377-2.458,2.716-2.234       c1.342,0.215,2.304,1.576,2.146,3.034C198.258,222.577,197.034,223.581,195.692,223.357z M196.169,219.038       c-0.915-0.149-1.742,0.485-1.846,1.416c-0.1,0.935,0.558,1.808,1.473,1.961c0.92,0.146,1.742-0.488,1.843-1.419       C197.738,220.062,197.077,219.185,196.169,219.038z" fill="#102947"/></g><path d="M437.062,292.919c0.046-0.746,0.123-1.55,0.219-2.385c0.02-0.153,0.031-0.312,0.059-0.469      c0.565-4.889,1.619-10.738,1.188-13.662c-0.42-0.288-72.916-25.019-144.396-39.526c-0.242-0.05-0.492-0.097-0.73-0.15      l-14.224,8.123c-59.873-10.681-119.342-23.515-152.458-30.738c-15.796-3.45-25.6-5.615-26.577-5.669      c-6.416-0.335-12.042,5.746-12.938,14l-0.958,8.754l-2.011,18.389c-0.923,8.445,3.354,16.262,9.777,17.911      c10.738,2.73,22.165,5.573,34.223,8.673c6.796,1.446,15.65,2.996,25.973,4.585c29.931,4.615,72.188,9.585,112.312,13.623      c46.269,4.661,89.7,8.085,108.111,8.296c1.085,0.008,2.081,0.012,2.984,0c2.323-0.02,4.646-0.05,6.958-0.069      c1.78-0.026,3.554-0.038,5.331-0.058c1.522-0.022,3.054-0.046,4.588-0.065c11.962-0.149,23.992-0.365,36.192-0.808      c0.746-0.02,2.473-1.5,3.977-2.935c1.081-1.026,2.043-2.03,2.442-2.469C436.97,295.381,436.974,294.227,437.062,292.919z" fill="#102947"/><g><path d="M461.538,210.958l-8.562-1.681c-5.384-1.051-10.969,0.48-16.046,4.369       c-36.492,27.942-66.53,69.588-94.181,61.392l88.896,26.358c0.584,0.169,2.181,0.442,2.765,0.542l34.45-86.23       C466.792,213.161,464.284,211.492,461.538,210.958z" fill="#102947"/><path d="M471.562,249.754l-14.596,34.123c-1.646,3.85-3.658,7.173-5.912,9.885       c-2.45,2.946-5.185,5.165-8.062,6.558c-2.958,1.431-6.05,1.977-9.131,1.55c-0.153-0.016-0.308-0.046-0.461-0.065l1.257-3.065       l2.404-5.819l0.785-1.919l3.846-8.585l0.6-2.211l26.565-64.5c1.985,2.438,3.562,5.688,4.558,9.522       C475.438,233.069,474.738,242.308,471.562,249.754z" fill="#F6F3F5"/></g><polygon fill="#472510" points="145.084,322.896 141.658,324.407 127.35,275.9 130.781,274.393     "/><polygon fill="#472510" points="141.238,320.773 144.219,323.327 168.438,281.104 165.454,278.554     "/><path d="M441.692,282.415c-0.346,3.069-5.516,19.597-5.516,19.597c-10.762,0.907-98.342,4.992-150.977,3.319      c-7.377-0.234-14.062-0.585-19.758-1.069c-38.77-3.308-79.504-7.619-109.215-11.996c-1.088-0.158-2.169-0.319-3.231-0.485      c-10.319-1.561-19.169-3.134-25.95-4.669c-12.039-3.365-23.438-6.454-34.15-9.431c-6.408-1.792-10.492-11.338-9.342-21.877      l3.35-30.673l283.062,45.708l71.438,11.53L441.692,282.415z" fill="#F75D19"/><path d="M439.792,289.98c-10.758,0.912-100.35,2.308-152.988,0.631c-7.373-0.234-14.062-0.581-19.754-1.069      c-38.77-3.308-79.504-7.615-109.215-11.992c-1.088-0.157-2.169-0.319-3.23-0.48c-10.319-1.569-19.169-3.143-25.958-4.677      c-12.031-3.369-23.431-6.454-34.142-9.423c-6.412-1.797-10.496-11.343-9.342-21.881l-1.608,14.715      c-1.15,10.539,2.935,20.085,9.342,21.877c10.712,2.977,22.112,6.065,34.15,9.431c6.781,1.535,15.63,3.108,25.95,4.669      c1.062,0.166,2.143,0.327,3.231,0.485c29.711,4.377,70.446,8.688,109.215,11.996c5.696,0.484,12.381,0.835,19.758,1.069      c52.635,1.673,140.215-2.412,150.977-3.319C436.177,302.012,439.792,289.984,439.792,289.98z" fill="#D95216"/><g><polygon fill="#FFFFFF" points="440.946,285.784 86.6,227.954 86.2,231.635 439.966,289.369      "/></g></g><path d="M78.823,220.919c-12.473-1.969-23.1,1.573-23.796,7.958c-0.7,6.389,8.796,13.212,21.254,15.312     L78.823,220.919z" fill="#102947"/><path d="M88.861,236.35c-4.88,44.65-11.75,80.381-15.354,79.793     c-3.592-0.589-2.565-37.27,2.315-81.923c2.146-19.7,4.692-37.666,7.173-51.55c1.119-6.296,2.242-11.762,3.292-16.158     c1.884-7.85,3.604-12.296,4.884-12.085c1.658,0.27,2.339,8.212,2.1,21.065C93.004,190.523,91.488,212.277,88.861,236.35z" fill="#F6F3F5" opacity="0.5"/><path d="M93.273,175.492l-10.938,59.792l0.662-52.615c1.119-6.296,2.242-11.762,3.292-16.158     c1.884-7.85,3.604-12.296,4.884-12.085C92.831,154.696,93.512,162.639,93.273,175.492z" fill="#F6F3F5"/><path d="M80.058,296.488l2.277-61.204l-10.654,50.981c-0.269,6.435-0.361,12.065-0.288,16.649     c0.13,8.178,0.834,13.016,2.119,13.224C75.169,316.411,77.531,308.97,80.058,296.488z" fill="#F6F3F5"/><polygon fill="#102947" points="77.185,235.9 85.581,237.27 86.246,231.188 77.846,229.819    "/><polygon fill="#102947" points="167.7,233.788 163.619,234.758 158.342,201.754 162.492,201.069    "/><polygon fill="#102947" points="216.847,236.446 220.577,238.696 233.396,206.611 229.347,205.53    "/><path d="M285.2,305.331c-7.377-0.234-14.062-0.585-19.758-1.069c-38.77-3.308-79.504-7.619-109.215-11.996     c-7.834-17.735-15.992-38.908-15.854-40.17c0.396-3.611,0.931-6.776,8.781-7.511c5.262-0.496,13.792,0.1,27.739,2.373     c22.661,3.699,54.042,10.931,73,17.185c10.153,3.354,16.742,6.419,16.512,8.519C266.273,273.843,276.657,291.266,285.2,305.331z" opacity="0.1"/><path d="M266.488,271.923c-0.604,5.48-56.992,0.804-91.796-4.873c-34.8-5.677-34.842-10.211-34.238-15.7     c0.6-5.484,1.611-9.85,36.407-4.165C211.665,252.861,267.081,266.435,266.488,271.923z" fill="#E6ECF0"/><path d="M170.812,246.246c-28.869-4.204-29.792-0.038-30.357,5.104c-0.562,5.15-0.562,9.458,28.2,14.666     L170.812,246.246z" fill="#102947"/><path d="M175.823,247.165l-2.143,19.565c1.27,0.254,2.601,0.504,4,0.758l2.158-19.769     C178.435,247.516,177.097,247.331,175.823,247.165z" fill="#5AA4FF"/><path d="M266.47,272.008c0-0.031,0.007-0.058,0.019-0.085c0.593-5.488-54.823-19.062-89.627-24.738     c-34.796-5.685-35.808-1.319-36.407,4.165c-0.004,0.035-0.008,0.062-0.008,0.089L266.47,272.008z" fill="#F5F5F5"/><path d="M169.723,256.22l1.088-9.974c-28.869-4.204-29.792-0.038-30.357,5.104     c-0.004,0.035-0.008,0.062-0.008,0.089L169.723,256.22z" fill="#1F4F89"/><path d="M178.754,257.692l1.085-9.973c-1.404-0.204-2.742-0.389-4.016-0.555l-1.081,9.873L178.754,257.692z" fill="#8ABEFF"/><path d="M445.139,280.669l-74.446-12.149c-1.177-0.192-2-1.273-1.869-2.458l0.046-0.427     c0.054-0.492,0.308-0.942,0.704-1.242c0.393-0.3,0.893-0.423,1.381-0.343l70.284,11.47c2.458,0.399,4.173,2.657,3.9,5.134     V280.669z" fill="#F6F3F5"/><path d="M451.054,293.762c-2.45,2.946-7.604,7.131-11.254,7.746c-6.042,1.012-51.419,2.758-52.516,2.772     l-17.314-33.473l-1.377-2.631l76.55,12.492l0.181,0.331L451.054,293.762z" opacity="0.1"/><g><path d="M160.677,325.903c-0.88,8.624-8.965,14.462-18.05,13.043c-9.092-1.423-15.746-9.569-14.861-18.192      c0.88-8.623,8.965-14.458,18.054-13.038C154.908,309.139,161.558,317.284,160.677,325.903z" fill="#FFFFFF"/><path d="M145.331,312.5c6.292,0.984,10.911,6.646,10.304,12.615c-0.612,5.97-6.231,10.027-12.523,9.042      c-6.292-0.988-10.915-6.642-10.304-12.615C133.419,315.577,139.035,311.516,145.331,312.5 M145.819,307.716      c-9.088-1.42-17.173,4.415-18.054,13.038c-0.885,8.623,5.769,16.77,14.861,18.192c9.084,1.419,17.169-4.419,18.05-13.043      C161.558,317.284,154.908,309.139,145.819,307.716L145.819,307.716z"/></g><path d="M146.031,323.615c-0.096,0.942-0.988,1.589-1.984,1.431c-1-0.153-1.735-1.05-1.635-2c0.1-0.949,0.984-1.588,1.984-1.431     C145.396,321.77,146.127,322.669,146.031,323.615z"/></g></g></svg>