<?xml version="1.0" ?><!DOCTYPE svg  PUBLIC '-//W3C//DTD SVG 1.1//EN'  'http://www.w3.org/Graphics/SVG/1.1/DTD/svg11.dtd'><svg enable-background="new 0 0 512 512" height="512px" id="Layer_1" version="1.1" viewBox="0 0 512 512" width="512px" xml:space="preserve" xmlns="http://www.w3.org/2000/svg" xmlns:xlink="http://www.w3.org/1999/xlink"><g><g><path d="M512,256c0,141.388-114.612,256-256,256S0,397.388,0,256S114.612,0,256,0S512,114.612,512,256z" fill="#1B4273"/><g><path d="M83.84,410.04c1.567-0.061,3.063-0.061,4.43,0.008c-0.297-0.188-0.477-0.381-0.482-0.583      c-0.055-1.447,7.353-2.055,16.575-2.405c5.735-0.212,12.157-0.89,15.505-0.744c-1.085-0.271-2.324-0.618-2.109-0.95      c1.015-1.607,10.865-2.815,25.935-3.388c4.485-0.17,8.715-0.218,12.447-0.152c11.628-0.688,21.788-0.235,27.022,1.013      c1.36-0.421,3.056-0.718,4.9-0.83c4.588-0.272,8.375,0.722,8.465,2.228c0.09,1.505-3.555,2.949-8.14,3.229      c-1.138,0.065-2.23,0.053-3.22-0.027c0.22,0.228,0.354,0.458,0.372,0.71c0.103,1.748-5.268,2.468-11.973,2.867      c-4.167,0.253-8.817,1.053-11.257,0.865c0.797,0.33,1.717,0.755,1.579,1.16c-0.67,1.945-7.797,3.38-18.75,4.03      c-10.96,0.659-19.938-0.375-20.052-2.306c0,0,0.012-0.045,0.012-0.064c-14.847,0.465-27.609,0.1-34.322-0.86      c-1.888,0.351-4.225,0.607-6.765,0.7c-6.311,0.24-11.46-0.572-11.505-1.815C72.457,411.479,77.53,410.28,83.84,410.04z" fill="#E6F2F9"/><path d="M135.65,393.537c0.449,7.48,7.052,13.171,14.757,12.708c7.7-0.46,13.583-6.896,13.133-14.38      c-0.447-7.478-7.053-13.165-14.76-12.7C141.082,379.625,135.2,386.06,135.65,393.537z" fill="#E6F2F9"/><path d="M115.293,401.107c0.395,6.563,6.194,11.553,12.955,11.15c6.76-0.408,11.925-6.05,11.524-12.618      c-0.393-6.563-6.185-11.552-12.95-11.152C120.067,388.896,114.9,394.545,115.293,401.107z" fill="#E6F2F9"/><path d="M135.24,403.947c-0.373-6.242-5.277-11.03-10.96-10.689c-4.19,0.25-7.628,3.228-8.987,7.277      c-0.065-6.315,4.967-11.65,11.529-12.048c6.766-0.399,12.558,4.59,12.95,11.152c0.28,4.625-2.21,8.785-6.063,10.99      C134.803,408.7,135.388,406.397,135.24,403.947z" fill="#FFFFFE"/><path d="M157.74,398.565c0.29,4.819,4.547,8.482,9.508,8.189c4.959-0.3,8.75-4.445,8.462-9.265      c-0.29-4.823-4.55-8.485-9.508-8.186C161.24,389.6,157.45,393.745,157.74,398.565z" fill="#E6F2F9"/><path d="M171.553,402.505c-0.26-4.377-3.82-7.728-7.95-7.479c-1.792,0.104-3.402,0.88-4.622,2.074      c0.387-4.194,3.649-7.582,7.827-7.832c4.625-0.272,8.612,3.399,8.902,8.223c0.213,3.609-1.71,6.835-4.633,8.34      C171.442,404.805,171.623,403.68,171.553,402.505z" fill="#FFFEFE"/><path d="M102.532,405.045c0.25,4.155,3.92,7.32,8.208,7.063c4.287-0.26,7.553-3.832,7.308-7.997      c-0.248-4.152-3.925-7.32-8.208-7.065C105.558,397.3,102.282,400.88,102.532,405.045z" fill="#E6F2F9"/><path d="M114.518,406.295c-0.2-3.35-3.16-5.899-6.61-5.697c-2.444,0.147-4.47,1.64-5.38,3.683      c0.163-3.83,3.29-6.99,7.313-7.235c4.283-0.255,7.96,2.913,8.208,7.065c0.239,4.037-2.83,7.51-6.92,7.957      C113.26,410.995,114.668,408.771,114.518,406.295z" fill="#FEFFFF"/><path d="M158.543,401c1.667-7.305-2.643-14.525-9.631-16.12c-5.085-1.162-10.175,0.985-13.22,5.058      c0.018-0.103,0.027-0.197,0.05-0.3c1.67-7.3,9.125-11.828,16.646-10.11c7.524,1.72,12.27,9.032,10.603,16.333      c-0.771,3.359-2.771,6.125-5.43,7.975C157.98,402.945,158.313,402,158.543,401z" fill="#FFFFFE"/></g><g><path d="M139.232,215.945c-1.564-0.075-3.063-0.092-4.43-0.04c0.3-0.183,0.479-0.375,0.49-0.578      c0.069-1.448-7.33-2.133-16.551-2.58c-5.729-0.275-12.145-1.02-15.492-0.913c1.088-0.26,2.33-0.592,2.12-0.927      c-1-1.618-10.838-2.928-25.9-3.663c-4.479-0.22-8.71-0.31-12.447-0.288c-11.615-0.81-21.78-0.465-27.03,0.725      c-1.354-0.433-3.045-0.748-4.89-0.883c-4.585-0.32-8.38,0.635-8.485,2.138c-0.107,1.505,3.521,2.987,8.103,3.317      c1.138,0.078,2.23,0.075,3.221,0.005c-0.223,0.225-0.36,0.455-0.38,0.708c-0.123,1.745,5.239,2.522,11.942,2.995      c4.159,0.297,8.805,1.147,11.247,0.988c-0.8,0.32-1.728,0.735-1.593,1.14c0.65,1.953,7.761,3.465,18.705,4.23      c10.955,0.78,19.94-0.162,20.078-2.09c0-0.025-0.013-0.045-0.013-0.065c14.84,0.623,27.604,0.395,34.33-0.493      c1.882,0.37,4.215,0.653,6.752,0.772c6.311,0.305,11.468-0.452,11.527-1.695C150.6,217.507,145.54,216.252,139.232,215.945z" fill="#E6F2F9"/><path d="M87.603,198.89c-0.53,7.475-7.192,13.095-14.893,12.55c-7.692-0.542-13.508-7.04-12.978-14.52      c0.527-7.47,7.19-13.087,14.896-12.542C82.317,184.92,88.133,191.42,87.603,198.89z" fill="#E6F2F9"/><path d="M107.878,206.678c-0.466,6.557-6.315,11.487-13.07,11.012c-6.758-0.48-11.865-6.177-11.396-12.74      c0.466-6.56,6.311-11.488,13.07-11.015C103.237,194.415,108.34,200.12,107.878,206.678z" fill="#E6F2F9"/><path d="M87.902,209.305c0.44-6.24,5.396-10.975,11.075-10.573c4.185,0.295,7.59,3.308,8.905,7.373      c0.135-6.313-4.84-11.703-11.4-12.17c-6.76-0.473-12.604,4.455-13.07,11.015c-0.33,4.62,2.118,8.805,5.948,11.055      C88.287,214.063,87.73,211.752,87.902,209.305z" fill="#FFFFFE"/><path d="M65.46,203.68c-0.343,4.817-4.638,8.435-9.593,8.09c-4.957-0.355-8.705-4.538-8.364-9.355      c0.34-4.82,4.64-8.435,9.595-8.085C62.058,194.68,65.803,198.865,65.46,203.68z" fill="#E6F2F9"/><path d="M51.607,207.475c0.305-4.375,3.902-7.685,8.03-7.395c1.79,0.125,3.393,0.915,4.6,2.125      c-0.345-4.2-3.569-7.623-7.745-7.915c-4.622-0.325-8.649,3.305-8.989,8.125c-0.253,3.61,1.637,6.853,4.545,8.39      C51.69,209.775,51.522,208.65,51.607,207.475z" fill="#FFFEFE"/><path d="M120.598,210.75c-0.298,4.155-4,7.277-8.285,6.975c-4.282-0.305-7.51-3.913-7.22-8.075      c0.29-4.15,4-7.275,8.28-6.978C117.652,202.975,120.89,206.59,120.598,210.75z" fill="#E6F2F9"/><path d="M108.598,211.873c0.234-3.348,3.225-5.868,6.672-5.627c2.44,0.175,4.453,1.69,5.341,3.742      c-0.123-3.832-3.218-7.025-7.237-7.315c-4.28-0.297-7.99,2.828-8.28,6.978c-0.282,4.035,2.75,7.54,6.835,8.03      C109.803,216.585,108.423,214.348,108.598,211.873z" fill="#FEFFFF"/><path d="M64.63,206.11c-1.587-7.325,2.8-14.498,9.803-16.017c5.098-1.108,10.165,1.092,13.165,5.197      c-0.016-0.103-0.025-0.195-0.048-0.3c-1.59-7.318-8.997-11.925-16.532-10.288c-7.548,1.64-12.367,8.902-10.777,16.22      c0.732,3.368,2.702,6.153,5.342,8.03C65.173,208.06,64.85,207.112,64.63,206.11z" fill="#FFFFFE"/></g><g><path d="M465.218,318.688c-2.288,0.087-4.476,0.317-6.45,0.667c0.415-0.49,0.655-0.987,0.65-1.495      c-0.048-3.535-10.888-3.925-24.355-3.44c-8.365,0.308-17.775-0.393-22.633,0.438c1.553-0.82,3.33-1.85,2.993-2.627      c-1.625-3.78-16.073-5.283-38.073-4.475c-6.539,0.24-12.699,0.75-18.137,1.445c-16.993,0.015-31.75,2.61-39.263,6.427      c-2.013-0.828-4.5-1.32-7.202-1.32c-6.7,0-12.131,2.992-12.131,6.68c0,3.693,5.431,6.688,12.131,6.688      c1.664,0,3.252-0.188,4.694-0.525c-0.305,0.578-0.485,1.167-0.485,1.78c0,4.288,7.886,5.25,17.683,5.25      c6.091,0,12.931,1.275,16.471,0.48c-1.138,0.92-2.44,2.095-2.2,3.05c1.147,4.658,11.643,7.118,27.657,7.118      s28.995-3.84,28.995-8.578c0-0.05-0.02-0.103-0.025-0.155c21.66-1.035,40.213-3.788,49.91-7.108      c2.775,0.578,6.2,0.86,9.913,0.72c9.202-0.337,16.63-3.08,16.592-6.12C481.912,320.545,474.423,318.355,465.218,318.688z" fill="#E6F2F9"/><g><g><g><path d="M416.438,331.225c0.003,0.065,0.022,0.135,0.02,0.203c-0.095,1.563-1.244,2.987-3.227,4.22         c16.268-1.12,30.192-3.208,39.087-5.703C441.84,330.888,429.59,331.357,416.438,331.225z" fill="#FFFFFE"/></g><g><path d="M380.513,340.268c-19.485-1.17-32.07-5.083-33.11-11.12c-0.212-1.24,1.46-2.647,2.915-3.74         c-4.367,0.757-12.59-1.373-20.005-1.818c-11.923-0.715-21.442-2.522-21.112-8.002c0.022-0.347,0.098-0.682,0.2-1.018         c-5.07,0.805-8.783,3.37-8.783,6.417c0,3.693,5.431,6.688,12.131,6.688c1.664,0,3.252-0.188,4.694-0.525         c-0.305,0.578-0.485,1.167-0.485,1.78c0,4.288,7.886,5.25,17.683,5.25c6.091,0,12.931,1.275,16.471,0.48         c-1.138,0.92-2.44,2.095-2.2,3.05c1.147,4.658,11.643,7.118,27.657,7.118c12.88,0,23.785-2.488,27.563-5.922         C397.793,340.255,389.518,340.81,380.513,340.268z" fill="#FFFFFE"/></g><g><path d="M477.718,325.788c-4.968,1.458-11.777,2.672-19.891,3.592c2.263,0.3,4.815,0.428,7.533,0.328         c6.29-0.228,11.739-1.58,14.558-3.388C479.157,326.155,478.41,325.985,477.718,325.788z" fill="#FFFFFE"/></g></g></g><path d="M388.338,294.68c0,10.93-9.128,19.79-20.386,19.79c-11.255,0-20.382-8.86-20.382-19.79      c0-10.93,9.127-19.79,20.382-19.79C379.21,274.89,388.338,283.75,388.338,294.68z" fill="#E6F2F9"/><ellipse cx="400.744" cy="303.928" fill="#E6F2F9" rx="17.886" ry="17.367"/><path d="M389.838,309.8c0-9.122,6.725-16.52,15.024-16.52c6.125,0,11.386,4.035,13.726,9.815      c-0.45-9.2-8.256-16.535-17.846-16.535c-9.88,0-17.885,7.775-17.885,17.368c0,6.76,3.982,12.6,9.79,15.47      C390.883,316.69,389.838,313.385,389.838,309.8z" fill="#FFFFFE"/><path d="M356.603,303.928c0,7.04-5.875,12.747-13.13,12.747c-7.25,0-13.13-5.707-13.13-12.747      s5.88-12.753,13.13-12.753C350.728,291.175,356.603,296.888,356.603,303.928z" fill="#E6F2F9"/><path d="M336.83,310.868c0-6.4,4.89-11.59,10.923-11.59c2.627,0,5.037,0.988,6.92,2.623      c-0.933-6.072-5.976-10.725-12.08-10.725c-6.766,0-12.25,5.713-12.25,12.753c0,5.28,3.085,9.807,7.475,11.742      C337.19,314.208,336.83,312.585,336.83,310.868z" fill="#FFFEFE"/><ellipse cx="426.225" cy="308.545" fill="#E6F2F9" rx="11.335" ry="11.005"/><path d="M420.218,311.415c0-4.897,4.085-8.868,9.132-8.868c3.568,0,6.648,1.99,8.153,4.888      c-0.573-5.558-5.405-9.897-11.28-9.897c-6.26,0-11.333,4.93-11.333,11.007c0,5.893,4.772,10.69,10.768,10.975      C422.452,318.147,420.218,315.035,420.218,311.415z" fill="#FEFFFF"/><path d="M355.643,307.535c-3.063-10.488,2.588-21.37,12.62-24.305c7.305-2.135,14.907,0.55,19.694,6.208      c-0.039-0.143-0.06-0.282-0.1-0.422c-3.067-10.495-14.314-16.435-25.12-13.28c-10.805,3.16-17.077,14.223-14.01,24.715      c1.41,4.825,4.563,8.67,8.593,11.13C356.638,310.32,356.067,308.975,355.643,307.535z" fill="#FFFFFE"/></g><g><path d="M234.558,417.178c-2-7.17-3.48-13.588-4.021-18.351h-2c0.521,4.803,1.966,11.21,3.933,18.351H234.558z" fill="#FFE880"/><path d="M278.902,417.178c1.94-7.141,3.37-13.548,3.88-18.351h-2c-0.529,4.763-1.989,11.181-3.96,18.351H278.902      z" fill="#FFE880"/><path d="M241.537,397.598c2.853,8.17,5.703,15.893,8.053,22.11h2.147c-2.319-6.158-5.18-13.898-8.055-22.11      H241.537z" fill="#FFE880"/><path d="M268.22,397.598c-2.837,8.212-5.649,15.952-7.939,22.11h2.149c2.313-6.218,5.12-13.94,7.933-22.11      H268.22z" fill="#FFE880"/><path d="M229.982,397.598c3.01,7.397,6.34,15.007,9.588,22.11h2.757c-3.245-7.091-6.595-14.708-9.62-22.11      H229.982z" fill="#FFE880"/><path d="M279.112,397.598c-2.984,7.402-6.282,15.02-9.482,22.11h2.758c3.194-7.104,6.482-14.713,9.444-22.11      H279.112z" fill="#FFE880"/><g><path d="M326.061,348.82c-0.883,0.608-1.75,1.23-2.601,1.858c-19.843,14.357-34.287,32.237-40.378,48.502       h-54.399c-9-14.41-18.452-31.822-40.322-48.502c-0.793-0.628-1.208-1.388-2.053-1.993L326.061,348.82z" fill="#FFC415"/><g><path d="M287.05,390.51l-3.968,8.67c6.091-16.265,20.535-34.145,40.378-48.502        c0.851-0.628,1.718-1.25,2.601-1.858l-8.711-0.01C302.442,364.16,294.37,373.94,287.05,390.51z" opacity="0.1"/></g><g><path d="M193.317,348.69l-7.01-0.005c0.845,0.605,1.26,1.365,2.053,1.993        c17.527,13.37,27.072,27.202,34.81,39.59C216.362,377.525,208.202,363.277,193.317,348.69z" fill="#FFFFFF" opacity="0.6"/><path d="M322.897,351.095c0.192-0.138,0.372-0.28,0.563-0.417c0.851-0.628,1.718-1.25,2.601-1.858        l-32.333-0.03L322.897,351.095z" fill="#CFEBFF"/></g><path d="M223.17,390.268l5.513,8.912h54.399c1.07-2.845,2.408-5.745,3.968-8.67L223.17,390.268z" opacity="0.2"/><path d="M283.082,399.18" opacity="0.2"/><path d="M228.683,399.18" opacity="0.2"/><path d="M286.16,392.245c0.29-0.578,0.582-1.155,0.89-1.735l-63.88-0.242l1.072,1.737L286.16,392.245z" opacity="0.2"/><polygon fill="#FEC717" points="227.043,399.19        227.05,399.197 227.043,399.19      " stroke="#FFFFFF" stroke-miterlimit="10" stroke-width="1.6664"/><path d="M401.657,200.375c0,39.745-37.305,98.375-74.154,146.59c-0.473,0.623-0.955,1.25-1.426,1.855h-30.335       c0.54-0.605,1.078-1.232,1.618-1.855c30.59-35.217,66.662-88.01,66.662-141.23c0-53.54-16.215-101.197-41.445-131.825       C369.52,97.515,401.657,145.275,401.657,200.375z" fill="#C93910"/><path d="M215.537,348.82h-29.274c-0.465-0.605-1.3-1.232-1.785-1.855       c-36.85-48.215-74.138-106.845-74.138-146.59c0-55.36,32.43-103.31,79.74-126.795c-25.39,30.595-41.723,78.407-41.723,132.155       c0,53.22,35.495,106.013,65.603,141.23C214.48,347.587,215,348.215,215.537,348.82z" fill="#FFDB3E"/><path d="M215.53,348.82h24.927c-11.774-35.2-25.994-88.93-25.994-143.085c0-62.855,8.647-117.6,21.43-146.188       c-16.29,2.2-31.71,7.028-45.811,14.028c-25.385,30.605-41.725,78.42-41.725,132.16       C148.357,259.89,185.112,313.62,215.53,348.82z" fill="#FFB42A"/><path d="M297.918,205.735c0,54.155-14.458,107.885-26.42,143.085h24.255       c30.915-35.2,68.267-88.93,68.267-143.085c0-53.54-16.22-101.205-41.439-131.825c-14.17-7.123-29.678-12.053-46.072-14.31       C289.277,88.2,297.918,142.92,297.918,205.735z" fill="#ED6513"/><path d="M297.918,205.735c0-62.815-8.641-117.535-21.41-146.135c-6.705-0.925-13.548-1.433-20.516-1.433       c-6.822,0-13.529,0.493-20.1,1.38c-12.782,28.587-21.43,83.333-21.43,146.188c0,54.155,14.22,107.885,25.994,143.085h31.041       C283.46,313.62,297.918,259.89,297.918,205.735z" fill="#FF9A28"/><path d="M327.503,346.965c-0.473,0.623-1.442,1.855-1.442,1.855c-0.883,0.608-1.75,1.23-2.601,1.858H188.277       c-0.785-0.628-3.314-3.09-3.8-3.713H327.503z" fill="#C93910"/></g><path d="M283.508,443.465c0,5.723-4.641,10.362-10.365,10.362h-34.195c-5.725,0-10.365-4.64-10.365-10.362      V418.79c0-1.242,1.008-2.25,2.25-2.25h50.426c1.242,0,2.25,1.008,2.25,2.25V443.465z" fill="#FFC114"/><path d="M273.143,445.155h-34.195c-5.72,0-10.359-4.641-10.359-10.36v8.673c0,5.72,4.64,10.362,10.359,10.362      h34.195c5.72,0,10.365-4.643,10.365-10.362v-8.673C283.508,440.515,278.862,445.155,273.143,445.155z" opacity="0.2"/></g></g></g></svg>