<?xml version="1.0" ?><!DOCTYPE svg  PUBLIC '-//W3C//DTD SVG 1.1//EN'  'http://www.w3.org/Graphics/SVG/1.1/DTD/svg11.dtd'><svg enable-background="new 0 0 512.002 512" height="512px" id="Layer_1" version="1.1" viewBox="0 0 512.002 512" width="512.002px" xml:space="preserve" xmlns="http://www.w3.org/2000/svg" xmlns:xlink="http://www.w3.org/1999/xlink"><g><g><path d="M512.002,255.996c0,101.162-58.686,188.619-143.854,230.188c-7.223,3.523-14.623,6.716-22.2,9.558     c-9.107,3.423-18.453,6.335-28.022,8.708c-8.093,2.026-16.354,3.649-24.746,4.857c-12.139,1.777-24.554,2.692-37.177,2.692     c-12.372,0-24.533-0.877-36.441-2.569c-0.946-0.131-1.884-0.27-2.831-0.423c-2.923-0.446-5.839-0.946-8.731-1.492     c-3.992-0.762-7.946-1.607-11.869-2.554c-10.046-2.408-19.869-5.408-29.416-8.97c-7.569-2.812-14.961-5.961-22.162-9.454     C58.992,445.104,0,357.438,0,255.996C0,114.619,114.608,0,256.002,0c118.923,0,218.915,81.092,247.669,191.004     c0.407,1.558,0.808,3.119,1.185,4.696c0.3,1.246,0.592,2.496,0.869,3.742c0.139,0.588,0.27,1.177,0.4,1.765     C509.971,218.861,512.002,237.196,512.002,255.996z" fill="#71C6E9"/><path d="M355.31,323.596l0.623-3.257l-2.301-0.446l-0.923-2.154l-1.899,0.808l-41.047-46.03L275.386,306.9     l70.262,70.261l25.415-35.899L355.31,323.596z M365.079,341.596l-18.107,25.573l7.23-37.772L365.079,341.596z M350.271,324.984     l-8.062,42.104l-27.877-27.874l35.224-15.03L350.271,324.984z M346.256,320.492l-31.462,13.431l14.469-32.5L346.256,320.492z      M309.471,334.35l-26.092-26.096l41.877-9.385L309.471,334.35z M323.118,294.542l-37.039,8.304l23.492-23.5L323.118,294.542z" fill="#FFFFFF"/><path d="M204.346,272.516l-41.046,46.03l-1.9-0.808l-0.915,2.154l-2.308,0.446l0.623,3.257l-15.754,17.666     l25.423,35.899l70.262-70.261L204.346,272.516z M163.846,324.984l0.715-0.8l35.215,15.03l-27.869,27.874L163.846,324.984z      M204.539,279.346l23.5,23.5l-37.046-8.304L204.539,279.346z M230.739,308.254l-26.093,26.096l-15.792-35.48L230.739,308.254z      M184.854,301.423l14.461,32.5l-31.461-13.431L184.854,301.423z M159.908,329.396l7.238,37.772l-18.115-25.573L159.908,329.396z" fill="#FFFFFF"/><path d="M302.579,345.677c-1.107,5.139-2.322,10.231-3.661,15.238c-2.7,10.204-5.847,20.143-9.446,29.724h-65.986     c-3.608-9.615-6.77-19.589-9.462-29.831c-1.338-5.02-2.562-10.111-3.661-15.262c-18.116-84.046-6.654-182.857,39.179-252.938     c2.254-3.284,4.438-5.63,6.931-5.63s4.7,2.346,6.938,5.63C309.271,162.723,320.725,261.592,302.579,345.677z" fill="#FFFFFF"/><path d="M263.41,92.607c-2.238-3.284-4.446-5.63-6.938-5.63c-0.038,0-0.077,0.015-0.123,0.015v303.646h33.123     c3.6-9.581,6.746-19.52,9.446-29.724c1.339-5.007,2.554-10.1,3.661-15.238C320.725,261.592,309.271,162.723,263.41,92.607z" opacity="0.1"/><path d="M296.84,166.734c-7.784-26.677-18.861-51.857-33.431-74.127c-2.238-3.284-4.446-5.63-6.938-5.63     s-4.677,2.346-6.931,5.63c-14.563,22.27-25.648,47.45-33.425,74.127C246.369,153.246,262.217,154.354,296.84,166.734z" fill="#EB3611"/><path d="M143.862,388.45c-12.539-40.666-10.346-95.611,9.53-132.581c0.815-1.462,1.616-2.508,2.531-2.508     c0.907,0,1.715,1.046,2.538,2.508c19.869,36.97,22.062,91.915,9.523,132.581H143.862z" fill="#EB3611"/><path d="M368.825,388.45c12.539-40.666,10.347-95.611-9.53-132.581c-0.815-1.462-1.615-2.508-2.531-2.508     c-0.907,0-1.715,1.046-2.53,2.508c-19.877,36.97-22.069,91.915-9.531,132.581H368.825z" fill="#EB3611"/><path d="M255.995,512c-12.372,0-24.525-0.877-36.433-2.569l15.769-95.569l0.2-1.215h41.802     l0.2,1.215l15.646,95.446C281.041,511.085,268.625,512,255.995,512z" fill="#FFFFFF" opacity="0.3"/><polygon fill="#0D2038" points="293.086,414.1 219.777,414.1 223.485,398.462 289.386,398.462    "/><polygon fill="#122C4D" points="293.086,406.281 219.777,406.281 223.485,390.646 289.386,390.646    "/><g><circle cx="256.432" cy="206.615" fill="#BDD5FF" r="20.901"/><path d="M256.433,230.296c-13.056,0-23.679-10.619-23.679-23.681c0-13.058,10.623-23.681,23.679-23.681      c13.062,0,23.685,10.623,23.685,23.681C280.118,219.677,269.495,230.296,256.433,230.296z M256.433,188.492      c-9.995,0-18.125,8.131-18.125,18.123s8.131,18.123,18.125,18.123c9.992,0,18.123-8.131,18.123-18.123      S266.425,188.492,256.433,188.492z" fill="#122C4D"/></g><rect fill="#122C4D" height="7.28" width="23.884" x="143.862" y="388.45"/><rect fill="#122C4D" height="7.28" width="23.877" x="344.825" y="388.45"/><path d="M166.715,495.992c-7.569-2.812-14.961-5.961-22.162-9.454     c-1.753-31.988-1.892-64.007-0.4-94.449h23.539C169.331,425.531,169.016,460.873,166.715,495.992z" fill="#FFFFFF" opacity="0.5"/><path d="M368.148,486.185c-7.223,3.523-14.623,6.716-22.2,9.558     c-2.276-35.042-2.584-70.288-0.945-103.653h23.522C370.017,422.423,369.894,454.312,368.148,486.185z" fill="#FFFFFF" opacity="0.5"/><path d="M302.579,345.677c-1.107,5.139-2.322,10.231-3.661,15.238c-28.216,3.2-56.694,3.166-84.895-0.107     c-1.338-5.02-2.562-10.111-3.661-15.262C240.954,349.734,271.971,349.77,302.579,345.677z" fill="#EB3611"/><path d="M317.925,504.45c-8.101,2.026-16.354,3.649-24.746,4.857     c-12.139,1.777-24.554,2.692-37.185,2.692c-12.372,0-24.525-0.877-36.433-2.569c-0.954-0.131-1.892-0.27-2.838-0.423     c-2.923-0.446-5.831-0.946-8.723-1.492c-3.992-0.762-7.954-1.607-11.869-2.554l24.723-91.101h74.395L317.925,504.45z" fill="#FFFFFF" opacity="0.5"/><path d="M127.885,170.554c-3.577,0-7.016,0.212-10.246,0.6c-2.338-8.254-16.8-14.608-34.308-14.608     c-13.831,0-25.769,3.97-31.323,9.704c-3.208-0.865-6.769-1.35-10.523-1.35c-13.931,0-25.216,6.616-25.216,14.773     c0,8.158,11.285,14.77,25.216,14.77h78.792v-0.327c2.438,0.212,4.985,0.327,7.608,0.327c18.123,0,32.815-5.346,32.815-11.942     C160.7,175.9,146.008,170.554,127.885,170.554z" fill="#FFFFFF" opacity="0.6"/><path d="M354.279,132.654c3.577,0,7.023,0.215,10.246,0.6c2.331-8.254,16.8-14.608,34.308-14.608     c13.839,0,25.77,3.969,31.323,9.708c3.208-0.866,6.77-1.35,10.523-1.35c13.923,0,25.215,6.611,25.215,14.769     s-11.292,14.773-25.215,14.773h-78.793v-0.327c-2.446,0.211-4.984,0.327-7.607,0.327c-18.123,0-32.815-5.346-32.815-11.946     C321.463,138.004,336.156,132.654,354.279,132.654z" fill="#FFFFFF" opacity="0.5"/></g></g></svg>